<svg width="593" height="545" viewBox="0 0 593 545" fill="none" xmlns="http://www.w3.org/2000/svg">
<g clip-path="url(#clip0_132_502)">
<path d="M15.1722 281.227C15.1722 281.227 18.3964 381.103 101.775 447.658C185.154 514.228 300.704 518.986 394.248 525.32C487.793 531.641 559.64 478.698 570.467 398.671C581.294 318.644 509.813 295.149 471.038 204.044C432.263 112.938 435.713 82.997 353.657 26.9711C271.602 -29.0689 143.239 5.33492 75.9393 101.325C8.6393 197.315 15.1722 281.227 15.1722 281.227Z" fill="#FC7901"/>
<path opacity="0.7" d="M15.1722 281.227C15.1722 281.227 18.3964 381.103 101.775 447.658C185.154 514.228 300.704 518.986 394.248 525.32C487.793 531.641 559.64 478.698 570.467 398.671C581.294 318.644 509.813 295.149 471.038 204.044C432.263 112.938 435.713 82.997 353.657 26.9711C271.602 -29.0689 143.239 5.33492 75.9393 101.325C8.6393 197.315 15.1722 281.227 15.1722 281.227Z" fill="white"/>
<path d="M421.737 485.244C476.324 485.244 520.575 472.116 520.575 455.922C520.575 439.728 476.324 426.6 421.737 426.6C367.15 426.6 322.899 439.728 322.899 455.922C322.899 472.116 367.15 485.244 421.737 485.244Z" fill="#263238" stroke="#263238" stroke-width="1.1599" stroke-miterlimit="10" stroke-linecap="round" stroke-linejoin="round"/>
<path d="M421.737 440.085C468.495 440.085 507.65 449.728 517.914 462.665C519.632 460.497 520.575 458.244 520.575 455.922C520.575 439.733 476.323 426.6 421.737 426.6C367.151 426.6 322.899 439.733 322.899 455.922C322.899 458.244 323.842 460.497 325.56 462.665C335.824 449.714 374.979 440.085 421.737 440.085Z" fill="white" stroke="#263238" stroke-width="1.1599" stroke-miterlimit="10" stroke-linecap="round" stroke-linejoin="round"/>
<path d="M408.249 481.556C375.232 480.064 350.312 473.307 350.312 465.184C350.312 464.34 350.579 463.495 351.114 462.679" stroke="white" stroke-width="1.1599" stroke-miterlimit="10" stroke-linecap="round" stroke-linejoin="round"/>
<path d="M484.869 457.146C490.529 459.525 493.74 462.27 493.74 465.184C493.74 474.391 461.638 481.865 422.033 481.865C421.47 481.865 420.892 481.865 420.329 481.865" stroke="white" stroke-width="1.1599" stroke-miterlimit="10" stroke-linecap="round" stroke-linejoin="round"/>
<path d="M359.97 456.822C372.388 451.853 395.535 448.503 422.033 448.503C439.055 448.503 454.683 449.882 466.988 452.191" stroke="white" stroke-width="1.1599" stroke-miterlimit="10" stroke-linecap="round" stroke-linejoin="round"/>
<path d="M407.306 470.913C398.942 469.745 393.353 467.619 393.353 465.184C393.353 461.496 406.193 458.512 422.033 458.512C437.872 458.512 450.713 461.496 450.713 465.184C450.713 468.337 441.265 470.984 428.58 471.674" stroke="white" stroke-width="1.1599" stroke-miterlimit="10" stroke-linecap="round" stroke-linejoin="round"/>
<path d="M24.8081 338.056C67.9054 325.823 158.606 301.639 208.672 299.823C275.916 297.374 389.622 346.277 460.54 354.836C531.459 363.394 579.132 360.945 579.132 360.945" stroke="#263238" stroke-width="1.1599" stroke-miterlimit="10" stroke-linecap="round" stroke-linejoin="round"/>
<path d="M0.81665 345.066C0.81665 345.066 4.54772 343.926 11.0665 342.025" stroke="#263238" stroke-width="1.1599" stroke-miterlimit="10" stroke-linecap="round" stroke-linejoin="round"/>
<path d="M559.969 268.868C542.609 265.067 515.183 260.675 484.264 261.703C431.663 263.462 374.796 270.43 304.384 279.496C233.973 288.575 133.783 238.448 65.6526 257.043C-2.49214 275.639 2.66096 281.241 2.66096 281.241" stroke="#263238" stroke-width="1.1599" stroke-miterlimit="10" stroke-linecap="round" stroke-linejoin="round"/>
<path d="M579.357 273.908C579.357 273.908 576.696 273.035 571.895 271.754" stroke="#263238" stroke-width="1.1599" stroke-miterlimit="10" stroke-linecap="round" stroke-linejoin="round"/>
<path d="M453.163 144.64C451.642 138.446 446.066 133.843 439.407 133.843C432.747 133.843 427.172 138.446 425.651 144.64H453.163Z" stroke="#263238" stroke-width="1.1599" stroke-miterlimit="10" stroke-linecap="round" stroke-linejoin="round"/>
<path d="M592.183 144.64C590.494 137.531 584.51 132.097 577.118 131.267C577.569 128.818 577.822 126.298 577.822 123.722C577.822 100.973 559.378 82.5469 536.64 82.5469C516.365 82.5469 499.526 97.2009 496.105 116.486C491.642 112.995 486.038 110.898 479.928 110.898C465.384 110.898 453.599 122.68 453.599 137.221C453.599 139.797 453.993 142.289 454.683 144.654H592.183V144.64Z" stroke="#263238" stroke-width="1.1599" stroke-miterlimit="10" stroke-linecap="round" stroke-linejoin="round"/>
<path d="M208.292 177.664C207.518 174.525 204.688 172.188 201.309 172.188C197.93 172.188 195.1 174.525 194.325 177.664H208.292Z" stroke="#263238" stroke-width="1.1599" stroke-miterlimit="10" stroke-linecap="round" stroke-linejoin="round"/>
<path d="M278.873 177.665C278.014 174.061 274.973 171.302 271.227 170.88C271.453 169.641 271.579 168.36 271.579 167.051C271.579 155.508 262.216 146.146 250.671 146.146C240.379 146.146 231.833 153.579 230.087 163.377C227.82 161.603 224.976 160.547 221.879 160.547C214.501 160.547 208.517 166.53 208.517 173.906C208.517 175.215 208.714 176.482 209.066 177.679H278.873V177.665Z" stroke="#263238" stroke-width="1.1599" stroke-miterlimit="10" stroke-linecap="round" stroke-linejoin="round"/>
<path d="M271.763 199.765C271.27 197.78 269.496 196.302 267.356 196.302C265.216 196.302 263.427 197.78 262.949 199.765H271.763Z" stroke="#263238" stroke-width="1.1599" stroke-miterlimit="10" stroke-linecap="round" stroke-linejoin="round"/>
<path d="M316.31 199.765C315.775 197.485 313.846 195.753 311.481 195.472C311.622 194.683 311.706 193.881 311.706 193.05C311.706 185.759 305.793 179.86 298.514 179.86C292.023 179.86 286.616 184.548 285.532 190.728C284.096 189.616 282.308 188.94 280.351 188.94C275.691 188.94 271.917 192.713 271.917 197.372C271.917 198.203 272.044 198.991 272.269 199.751H316.31V199.765Z" stroke="#263238" stroke-width="1.1599" stroke-miterlimit="10" stroke-linecap="round" stroke-linejoin="round"/>
<path d="M176.937 357.426C176.486 357.426 176.036 357.313 175.613 357.06C174.36 356.314 173.924 354.681 174.656 353.4C175.332 352.231 344.581 167.698 422.019 100.016C422.568 99.5375 423.398 99.5938 423.877 100.157C424.356 100.72 424.285 101.565 423.736 102.043C346.623 169.429 179.879 354.92 179.204 356.088C178.725 356.947 177.838 357.426 176.937 357.426Z" fill="#263238"/>
<path d="M186.272 320.685C186.272 320.685 194.663 311.732 199.703 311.732C204.744 311.732 214.248 320.122 213.698 324.599C213.135 329.075 204.744 325.162 204.744 325.162C204.744 325.162 196.916 335.79 189.073 334.115C181.231 332.44 186.272 320.685 186.272 320.685Z" fill="#FC7901" stroke="#263238" stroke-width="1.1599" stroke-miterlimit="10" stroke-linecap="round" stroke-linejoin="round"/>
<path d="M204.744 325.162C204.744 325.162 209.883 328.709 210.333 331.215C210.784 333.721 204.631 340.787 197.803 342.378C190.96 343.969 187.313 340.098 189.369 336.452C191.411 332.82 199.605 325.486 204.744 325.162Z" fill="#FC7901" stroke="#263238" stroke-width="1.1599" stroke-miterlimit="10" stroke-linecap="round" stroke-linejoin="round"/>
<path d="M415.612 292.742V107.575C415.612 107.575 411.881 120.976 411.881 121.948" stroke="#263238" stroke-width="1.1599" stroke-miterlimit="10" stroke-linecap="round" stroke-linejoin="round"/>
<path d="M488.019 302H355.999C353.238 302 350.999 304.239 350.999 307V410.769C350.999 413.531 353.238 415.769 355.999 415.769H488.019C490.781 415.769 493.019 413.531 493.019 410.769V307C493.019 304.239 490.781 302 488.019 302Z" fill="#FC7901" stroke="#263238" stroke-width="1.1599" stroke-miterlimit="10" stroke-linecap="round" stroke-linejoin="round"/>
<path d="M417.626 302.019V295.516C417.626 294.615 416.894 293.883 415.992 293.883C415.091 293.883 414.359 294.615 414.359 295.516V302.019H417.626Z" fill="#263238"/>
<path d="M430.706 286.169L430.677 286.493C430.396 286.014 429.889 285.662 429.284 285.662C428.383 285.662 427.65 286.394 427.65 287.295V304.694C427.65 307.467 425.398 309.705 422.638 309.705C421.92 309.705 421.258 309.551 420.639 309.283C420.202 309.917 419.766 311.127 421.061 312.816C421.568 312.915 422.103 312.971 422.638 312.971C427.2 312.971 430.917 309.255 430.917 304.694V296.628H434.662L430.706 286.169Z" fill="#263238"/>
<path d="M415.739 105.83C415.739 105.83 418.64 95.5255 416.063 96.4827C413.486 97.454 415.739 105.83 415.739 105.83Z" stroke="#263238" stroke-width="1.1599" stroke-miterlimit="10" stroke-linecap="round" stroke-linejoin="round"/>
<path d="M415.739 105.829C415.739 105.829 404.785 101.958 405.757 105.506C406.714 109.053 415.739 105.829 415.739 105.829Z" stroke="#263238" stroke-width="1.1599" stroke-miterlimit="10" stroke-linecap="round" stroke-linejoin="round"/>
<path d="M179.584 195.668C179.584 195.668 166.068 188.095 139.57 191.882C113.072 195.668 108.018 217.516 112.34 240.222C116.663 262.928 141.724 282.157 145.511 280.538C149.299 278.919 144.427 228.101 153.086 218.36C161.731 208.633 189.862 210.252 191.481 202.679C193.1 195.119 179.584 195.668 179.584 195.668Z" fill="#263238" stroke="#263238" stroke-width="1.1599" stroke-miterlimit="10" stroke-linecap="round" stroke-linejoin="round"/>
<path d="M132.488 209.154L135.247 227.045C135.247 227.045 118.268 273.372 121.027 279.791C123.773 286.21 149.468 288.505 149.468 288.505C149.468 288.505 191.213 293.544 203.603 288.505C215.993 283.465 209.573 268.783 208.193 264.659C206.814 260.534 199.013 227.51 199.013 227.51C199.013 227.51 201.773 219.711 201.773 215.587C201.773 211.462 201.308 199.99 199.478 197.245C197.648 194.5 165.532 191.276 151.312 193.571C137.078 195.851 130.643 199.511 132.488 209.154Z" fill="#757575" stroke="#263238" stroke-width="1.1599" stroke-miterlimit="10" stroke-linecap="round" stroke-linejoin="round"/>
<path d="M139.823 229.791C139.823 229.791 139.359 269.698 141.654 277.497C143.949 285.296 153.128 294.474 172.389 292.179C191.664 289.885 193.494 271.543 193.494 271.543L192.114 228.89L139.823 229.791Z" fill="white" stroke="#263238" stroke-width="1.1599" stroke-miterlimit="10" stroke-linecap="round" stroke-linejoin="round"/>
<path d="M169.418 261.886C171.316 261.886 172.854 260.348 172.854 258.451C172.854 256.554 171.316 255.017 169.418 255.017C167.521 255.017 165.983 256.554 165.983 258.451C165.983 260.348 167.521 261.886 169.418 261.886Z" stroke="#263238" stroke-width="1.1599" stroke-miterlimit="10"/>
<path d="M172.403 272.908C172.403 274.175 171.375 275.202 170.108 275.202C168.841 275.202 167.813 274.175 167.813 272.908C167.813 271.641 168.841 270.613 170.108 270.613C171.375 270.613 172.403 271.641 172.403 272.908Z" fill="#263238"/>
<path d="M158.535 243.74C159.999 245.317 160.52 247.217 159.675 248.006C158.845 248.78 156.972 248.132 155.508 246.556C154.043 244.979 153.523 243.079 154.367 242.291C155.212 241.502 157.071 242.178 158.535 243.74Z" fill="#263238"/>
<path d="M177.176 243.74C175.712 245.317 175.191 247.217 176.036 248.006C176.866 248.78 178.739 248.132 180.203 246.556C181.668 244.979 182.189 243.079 181.344 242.291C180.499 241.502 178.64 242.178 177.176 243.74Z" fill="#263238"/>
<path d="M148.736 238.335C148.736 238.335 151.763 233.296 158.31 234.816" stroke="#263238" stroke-width="1.1599" stroke-miterlimit="10" stroke-linecap="round" stroke-linejoin="round"/>
<path d="M176.444 235.308C176.444 235.308 182.991 233.295 185.004 238.828" stroke="#263238" stroke-width="1.1599" stroke-miterlimit="10" stroke-linecap="round" stroke-linejoin="round"/>
<path d="M198.535 491.283C198.535 491.283 205.744 486.961 209.742 485.258C210.165 485.075 210.559 484.92 210.897 484.807C214.431 483.625 224.427 484.216 233.846 478.332C243.265 472.448 238.549 465.381 231.495 463.622C224.427 461.862 216.782 459.497 216.782 459.497L215.022 431.836C215.022 431.836 193.832 437.72 186.778 440.662C179.711 443.604 183.836 485.384 184.427 488.918C185.004 492.451 185.004 494.802 198.535 491.283Z" fill="#263238" stroke="#263238" stroke-width="1.1599" stroke-miterlimit="10" stroke-linecap="round" stroke-linejoin="round"/>
<path d="M222.076 478.332C209.714 480.683 209.714 483.034 196.183 485.399C190.439 486.398 186.609 486.539 184.103 486.384C184.244 487.637 184.343 488.524 184.413 488.932C185.004 492.465 185.004 494.816 198.535 491.283C198.535 491.283 205.743 486.961 209.742 485.258C210.164 485.075 210.559 484.92 210.897 484.807C214.43 483.625 224.427 484.216 233.846 478.332C236.859 476.446 238.422 474.447 238.915 472.532C234.55 474.644 228.482 477.107 222.076 478.332Z" fill="white" stroke="#263238" stroke-width="1.1599" stroke-miterlimit="10" stroke-linecap="round" stroke-linejoin="round"/>
<path d="M226.989 463.255C226.989 463.255 226.525 495.365 225.61 502.248C224.694 509.132 226.074 517.846 236.62 517.846C247.165 517.846 267.82 510.962 275.155 509.582C282.491 508.203 294.43 504.993 299.471 493.535C304.511 482.062 273.776 483.442 273.776 483.442L275.606 460.046C275.62 460.046 243.969 466.465 226.989 463.255Z" fill="#263238" stroke="#263238" stroke-width="1.1599" stroke-miterlimit="10" stroke-linecap="round" stroke-linejoin="round"/>
<path d="M299.471 493.535C300.076 492.155 300.161 490.973 299.851 489.945C297.556 493.084 293.698 496.942 287.545 499.504C276.535 504.093 255.895 509.132 240.295 511.427C233.17 512.468 228.651 511.314 225.821 509.751C226.835 514.2 229.805 517.846 236.634 517.846C247.179 517.846 267.834 510.962 275.169 509.583C282.505 508.203 294.43 504.994 299.471 493.535Z" fill="white" stroke="#263238" stroke-width="1.1599" stroke-miterlimit="10" stroke-linecap="round" stroke-linejoin="round"/>
<path d="M273.79 483.441C273.79 483.441 276.085 491.24 269.664 496.28" stroke="white" stroke-width="1.1599" stroke-miterlimit="10" stroke-linecap="round" stroke-linejoin="round"/>
<path d="M223.779 446.279C223.779 446.279 223.075 460.229 223.85 463.031C226.792 473.616 227.722 471.139 249.742 470.674C271.762 470.21 280.66 461.412 282.955 455.908C285.25 450.404 282.955 438.481 282.04 434.356C281.125 430.231 273.776 428.852 271.03 429.317C268.285 429.767 225.159 441.704 223.779 446.279Z" fill="#757575" stroke="#263238" stroke-width="1.1599" stroke-miterlimit="10" stroke-linecap="round" stroke-linejoin="round"/>
<path d="M72.3826 481.147V511.975C72.3826 514.453 73.7624 516.719 75.9588 517.859L125.519 543.451C127.307 544.38 129.419 544.436 131.263 543.606L204.265 515.79C206.645 514.72 208.179 512.355 208.179 509.751V472.447L124.688 497.673L72.3826 481.147Z" fill="#FC7901"/>
<mask id="mask0_132_502" style="mask-type:luminance" maskUnits="userSpaceOnUse" x="72" y="472" width="137" height="73">
<path d="M72.3826 481.147V511.975C72.3826 514.453 73.7624 516.719 75.9588 517.859L125.519 543.451C127.307 544.38 129.419 544.436 131.263 543.606L204.265 515.79C206.645 514.72 208.179 512.355 208.179 509.751V472.447L124.688 497.673L72.3826 481.147Z" fill="white"/>
</mask>
<g mask="url(#mask0_132_502)">
<path opacity="0.18" d="M128.363 496.547L124.688 497.659L72.3826 481.146V511.975C72.3826 514.452 73.7624 516.719 75.9588 517.859L125.519 543.451C126.406 543.915 127.377 544.155 128.349 544.183V496.547H128.363Z" fill="black"/>
</g>
<path d="M72.3826 481.147V511.975C72.3826 514.453 73.7624 516.719 75.9588 517.859L125.519 543.451C127.307 544.38 129.419 544.436 131.263 543.606L204.265 515.79C206.645 514.72 208.179 512.355 208.179 509.751V472.447L124.688 497.673L72.3826 481.147Z" stroke="#263238" stroke-width="1.1599" stroke-miterlimit="10" stroke-linecap="round" stroke-linejoin="round"/>
<path d="M148.665 429.105L68.5812 454.767C67.2999 455.175 66.427 456.372 66.427 457.723V480.556C66.427 481.752 67.1169 482.85 68.201 483.357L123.97 509.92C124.73 510.286 125.603 510.314 126.392 510.033L210.305 478.684C211.516 478.233 212.319 477.065 212.319 475.77L212.474 454.359C212.474 452.895 211.46 451.642 210.038 451.318L150.299 429.02C149.735 428.922 149.186 428.95 148.665 429.105Z" fill="white"/>
<mask id="mask1_132_502" style="mask-type:luminance" maskUnits="userSpaceOnUse" x="66" y="428" width="147" height="83">
<path d="M148.665 429.105L68.5812 454.767C67.2999 455.175 66.427 456.372 66.427 457.723V480.556C66.427 481.752 67.1169 482.85 68.201 483.357L123.97 509.92C124.73 510.286 125.603 510.314 126.392 510.033L210.305 478.684C211.516 478.233 212.319 477.065 212.319 475.77L212.474 454.359C212.474 452.895 211.46 451.642 210.038 451.318L150.299 429.02C149.735 428.922 149.186 428.95 148.665 429.105Z" fill="white"/>
</mask>
<g mask="url(#mask1_132_502)">
<path d="M123.928 509.92L123.956 509.934C124.716 510.3 125.589 510.328 126.378 510.047L210.291 478.698C211.502 478.247 212.305 477.079 212.305 475.784L212.46 454.373C212.46 453.627 212.192 452.923 211.727 452.374L125.139 484.357L123.928 509.92Z" fill="#FC7901"/>
</g>
<mask id="mask2_132_502" style="mask-type:luminance" maskUnits="userSpaceOnUse" x="66" y="428" width="147" height="83">
<path d="M148.665 429.105L68.5812 454.767C67.2999 455.175 66.427 456.372 66.427 457.723V480.556C66.427 481.752 67.1169 482.85 68.201 483.357L123.97 509.92C124.73 510.286 125.603 510.314 126.392 510.033L210.305 478.684C211.516 478.233 212.319 477.065 212.319 475.77L212.474 454.359C212.474 452.895 211.46 451.642 210.038 451.318L150.299 429.02C149.735 428.922 149.186 428.95 148.665 429.105Z" fill="white"/>
</mask>
<g mask="url(#mask2_132_502)">
<path opacity="0.5" d="M123.928 509.92L123.956 509.934C124.716 510.3 125.589 510.328 126.378 510.047L210.291 478.698C211.502 478.247 212.305 477.079 212.305 475.784L212.46 454.373C212.46 453.627 212.192 452.923 211.727 452.374L125.139 484.357L123.928 509.92Z" fill="white"/>
</g>
<mask id="mask3_132_502" style="mask-type:luminance" maskUnits="userSpaceOnUse" x="66" y="428" width="147" height="83">
<path d="M148.665 429.105L68.5812 454.767C67.2999 455.175 66.427 456.372 66.427 457.723V480.556C66.427 481.752 67.1169 482.85 68.201 483.357L123.97 509.92C124.73 510.286 125.603 510.314 126.392 510.033L210.305 478.684C211.516 478.233 212.319 477.065 212.319 475.77L212.474 454.359C212.474 452.895 211.46 451.642 210.038 451.318L150.299 429.02C149.735 428.922 149.186 428.95 148.665 429.105Z" fill="white"/>
</mask>
<g mask="url(#mask3_132_502)">
<path d="M66.427 457.723V480.556C66.427 481.753 67.1169 482.851 68.201 483.357L123.97 509.92C124.35 510.103 124.744 510.202 125.167 510.216V484.343L66.5256 457.188C66.4833 457.371 66.427 457.54 66.427 457.723Z" fill="#FC7901"/>
</g>
<path d="M148.665 429.105L68.5812 454.767C67.2999 455.175 66.427 456.372 66.427 457.723V480.556C66.427 481.752 67.1169 482.85 68.201 483.357L123.97 509.92C124.73 510.286 125.603 510.314 126.392 510.033L210.305 478.684C211.516 478.233 212.319 477.065 212.319 475.77L212.474 454.359C212.474 452.895 211.46 451.642 210.038 451.318L150.299 429.02C149.735 428.922 149.186 428.95 148.665 429.105Z" stroke="#263238" stroke-width="1.1599" stroke-miterlimit="10" stroke-linecap="round" stroke-linejoin="round"/>
<path d="M258.64 387.113C258.64 387.113 269.186 392.153 274.691 402.246C280.196 412.339 276.071 431.596 272.861 437.565C269.65 443.533 248.081 446.278 240.745 446.278C233.41 446.278 232.03 445.363 232.03 445.363C232.03 445.363 208.63 449.952 193.959 452.697C179.274 455.456 182.949 421.052 187.539 405.455C192.129 389.858 217.824 382.06 228.369 382.06C238.915 382.074 258.64 387.113 258.64 387.113Z" fill="#263238" stroke="#263238" stroke-width="1.1599" stroke-miterlimit="10" stroke-linecap="round" stroke-linejoin="round"/>
<path d="M232.044 445.364C232.044 445.364 251.77 438.48 260.034 421.053" stroke="white" stroke-width="1.1599" stroke-miterlimit="10" stroke-linecap="round" stroke-linejoin="round"/>
<path d="M250.84 435.27C250.84 435.27 259.556 432.061 267.82 423.798" stroke="white" stroke-width="1.1599" stroke-miterlimit="10" stroke-linecap="round" stroke-linejoin="round"/>
<path d="M204.505 402.246C204.505 402.246 210.01 431.146 207.264 443.069C204.505 454.992 188.454 456.836 184.779 455.457C181.105 454.077 182.949 425.642 182.949 411.424C182.949 397.207 197.169 398.122 204.505 402.246Z" fill="#757575" stroke="#263238" stroke-width="1.1599" stroke-miterlimit="10" stroke-linecap="round" stroke-linejoin="round"/>
<path d="M87.5322 325.189C87.5322 325.189 84.322 343.996 86.617 353.174C88.912 362.352 93.0372 367.392 93.0372 367.392C93.0372 367.392 81.5625 384.368 83.8574 398.586C86.1524 412.804 92.1221 414.634 92.1221 414.634C92.1221 414.634 87.0816 440.775 96.2474 449.953C105.427 459.131 125.603 469.224 148.088 465.085C170.573 460.947 185.708 460.046 190.298 452.247C194.888 444.449 192.129 410.045 192.129 410.045C192.129 410.045 191.214 371.981 190.298 348.585C189.383 325.189 186.173 306.383 175.163 297.219C164.153 288.04 115.522 302.258 100.837 311.901C86.1524 321.529 87.5322 325.189 87.5322 325.189Z" fill="#FC7901"/>
<mask id="mask4_132_502" style="mask-type:luminance" maskUnits="userSpaceOnUse" x="83" y="294" width="110" height="173">
<path d="M87.5322 325.189C87.5322 325.189 84.322 343.996 86.617 353.174C88.912 362.352 93.0372 367.392 93.0372 367.392C93.0372 367.392 81.5625 384.368 83.8574 398.586C86.1524 412.804 92.1221 414.634 92.1221 414.634C92.1221 414.634 87.0816 440.775 96.2474 449.953C105.427 459.131 125.603 469.224 148.088 465.085C170.573 460.947 185.708 460.046 190.298 452.247C194.888 444.449 192.129 410.045 192.129 410.045C192.129 410.045 191.214 371.981 190.298 348.585C189.383 325.189 186.173 306.383 175.163 297.219C164.153 288.04 115.522 302.258 100.837 311.901C86.1524 321.529 87.5322 325.189 87.5322 325.189Z" fill="white"/>
</mask>
<g mask="url(#mask4_132_502)">
<path opacity="0.3" d="M90.7985 325.189C90.7985 325.189 87.5884 343.996 89.8834 353.174C92.1783 362.352 96.3036 367.392 96.3036 367.392C96.3036 367.392 84.8288 384.368 87.1238 398.586C89.4187 412.804 95.3884 414.634 95.3884 414.634C95.3884 414.634 90.348 440.775 99.5137 449.953C108.694 459.131 128.869 469.224 151.354 465.085C173.839 460.961 188.975 460.046 193.565 452.247C198.155 444.449 195.395 410.045 195.395 410.045C195.395 410.045 194.48 371.981 193.565 348.585C192.65 325.189 189.439 306.383 178.429 297.219C167.419 288.04 118.789 302.258 104.104 311.901C89.4187 321.529 90.7985 325.189 90.7985 325.189Z" fill="black"/>
</g>
<path d="M87.5322 325.189C87.5322 325.189 84.322 343.996 86.617 353.174C88.912 362.352 93.0372 367.392 93.0372 367.392C93.0372 367.392 81.5625 384.368 83.8574 398.586C86.1524 412.804 92.1221 414.634 92.1221 414.634C92.1221 414.634 87.0816 440.775 96.2474 449.953C105.427 459.131 125.603 469.224 148.088 465.085C170.573 460.947 185.708 460.046 190.298 452.247C194.888 444.449 192.129 410.045 192.129 410.045C192.129 410.045 191.214 371.981 190.298 348.585C189.383 325.189 186.173 306.383 175.163 297.219C164.153 288.04 115.522 302.258 100.837 311.901C86.1524 321.529 87.5322 325.189 87.5322 325.189Z" stroke="#263238" stroke-width="1.1599" stroke-miterlimit="10" stroke-linecap="round" stroke-linejoin="round"/>
<path d="M93.0374 367.392C93.0374 367.392 113.678 383.439 142.118 374.275" stroke="#263238" stroke-width="1.1599" stroke-miterlimit="10" stroke-linecap="round" stroke-linejoin="round"/>
<path d="M92.1079 414.634C92.1079 414.634 115.508 437.565 154.044 415.549" stroke="#263238" stroke-width="1.1599" stroke-miterlimit="10" stroke-linecap="round" stroke-linejoin="round"/>
<path d="M183.414 302.723C183.414 302.723 174.698 289.421 162.773 282.086C150.848 274.752 120.112 269.248 107.722 266.954C95.3323 264.659 82.0272 265.574 78.3665 279.341C74.6918 293.109 75.1564 316.04 78.8311 326.133C82.5059 336.226 97.6413 342.181 109.567 335.311C121.492 328.428 154.522 301.822 165.997 300.457C177.444 299.049 182.484 307.763 183.414 302.723Z" fill="#757575"/>
<mask id="mask5_132_502" style="mask-type:luminance" maskUnits="userSpaceOnUse" x="75" y="265" width="109" height="74">
<path d="M183.414 302.723C183.414 302.723 174.698 289.421 162.773 282.086C150.848 274.752 120.112 269.248 107.722 266.954C95.3323 264.659 82.0272 265.574 78.3665 279.341C74.6918 293.109 75.1564 316.04 78.8311 326.133C82.5059 336.226 97.6413 342.181 109.567 335.311C121.492 328.428 154.522 301.822 165.997 300.457C177.444 299.049 182.484 307.763 183.414 302.723Z" fill="white"/>
</mask>
<g mask="url(#mask5_132_502)">
<path opacity="0.3" d="M157.944 300.133C164.941 297.219 147.455 302.47 146.286 300.71C145.117 298.965 158.535 290.223 161.45 289.055C164.364 287.886 144.54 291.969 145.117 289.055C145.695 286.141 164.364 285.564 151.538 282.636C138.711 279.722 96.7262 272.148 88.5742 269.234C87.7575 268.939 87.1944 268.643 86.8142 268.348C82.9001 270.347 79.8449 273.781 78.3665 279.328C74.6918 293.095 75.1564 316.026 78.8311 326.119C82.0272 334.903 93.9103 340.548 104.794 337.324C109.834 333.242 114.509 327.836 122.407 322.867C138.12 312.957 150.96 303.047 157.944 300.133Z" fill="black"/>
</g>
<path d="M183.414 302.723C183.414 302.723 174.698 289.421 162.773 282.086C150.848 274.752 120.112 269.248 107.722 266.954C95.3323 264.659 82.0272 265.574 78.3665 279.341C74.6918 293.109 75.1564 316.04 78.8311 326.133C82.5059 336.226 97.6413 342.181 109.567 335.311C121.492 328.428 154.522 301.822 165.997 300.457C177.444 299.049 182.484 307.763 183.414 302.723Z" stroke="#263238" stroke-width="1.1599" stroke-miterlimit="10" stroke-linecap="round" stroke-linejoin="round"/>
<path d="M232.959 365.097C232.959 365.097 243.505 366.476 250.39 369.221C257.275 371.966 261.865 388.943 259.105 391.237C256.345 393.532 250.84 390.773 250.84 390.773C250.84 390.773 243.04 393.532 237.535 393.982C232.044 394.447 226.074 368.306 232.959 365.097Z" fill="#FC7901" stroke="#263238" stroke-width="1.1599" stroke-miterlimit="10" stroke-linecap="round" stroke-linejoin="round"/>
<path d="M198.085 363.718C198.085 363.718 199.915 363.718 210.01 359.129C220.105 354.54 228.355 354.54 234.79 364.633C241.21 374.726 243.97 387.114 240.295 394.448C236.62 401.782 222.864 406.835 215.515 406.835C208.18 406.835 207.25 397.207 207.25 397.207C207.25 397.207 206.335 382.074 201.745 376.57C197.169 371.066 196.254 365.097 198.085 363.718Z" fill="#757575" stroke="#263238" stroke-width="1.1599" stroke-miterlimit="10" stroke-linecap="round" stroke-linejoin="round"/>
<path d="M164.139 302.722C174.234 299.048 187.074 301.343 191.664 314.195C196.254 327.033 200.379 364.647 200.379 364.647C200.379 364.647 211.854 366.026 216.43 371.066C221.02 376.105 223.315 388.957 222.4 395.376C221.484 401.795 205.42 413.718 187.074 414.183C168.729 414.648 155.424 405.92 149.003 382.538C142.583 359.142 145.131 323.458 145.131 323.458C145.131 323.458 147.469 312.97 150.96 310.634" fill="#FC7901"/>
<mask id="mask6_132_502" style="mask-type:luminance" maskUnits="userSpaceOnUse" x="144" y="301" width="79" height="114">
<path d="M164.139 302.722C174.234 299.048 187.074 301.343 191.664 314.195C196.254 327.033 200.379 364.647 200.379 364.647C200.379 364.647 211.854 366.026 216.43 371.066C221.02 376.105 223.315 388.957 222.4 395.376C221.484 401.795 205.42 413.718 187.074 414.183C168.729 414.648 155.424 405.92 149.003 382.538C142.583 359.142 145.131 323.458 145.131 323.458C145.131 323.458 147.469 312.97 150.96 310.634" fill="white"/>
</mask>
<g mask="url(#mask6_132_502)">
<path opacity="0.3" d="M222.4 395.377C223.315 388.958 221.02 376.105 216.43 371.066C216.247 370.869 216.036 370.672 215.825 370.489C216.205 373.093 216.627 377.119 216.824 382.905C217.725 409.834 180.105 405.329 172.516 385.818C168.433 375.317 167.264 329.272 155.029 325.781C147.976 323.768 145.568 329.3 144.794 334.353C144.554 347.558 144.977 367.913 149.003 382.539C155.424 405.934 168.729 414.648 187.074 414.183C205.434 413.719 221.485 401.796 222.4 395.377Z" fill="black"/>
</g>
<path d="M164.139 302.722C174.234 299.048 187.074 301.343 191.664 314.195C196.254 327.033 200.379 364.647 200.379 364.647C200.379 364.647 211.854 366.026 216.43 371.066C221.02 376.105 223.315 388.957 222.4 395.376C221.484 401.795 205.42 413.718 187.074 414.183C168.729 414.648 155.424 405.92 149.003 382.538C142.583 359.142 145.131 323.458 145.131 323.458C145.131 323.458 147.469 312.97 150.96 310.634" stroke="#263238" stroke-width="1.1599" stroke-miterlimit="10" stroke-linecap="round" stroke-linejoin="round"/>
<path d="M200.379 364.646C200.379 364.646 203.956 381.356 185.54 390.562" stroke="#263238" stroke-width="1.1599" stroke-miterlimit="10" stroke-linecap="round" stroke-linejoin="round"/>
<path d="M378.019 354C377.407 352.974 376.723 351.876 375.967 350.706C375.211 349.518 374.428 348.33 373.618 347.142C372.808 345.936 371.98 344.775 371.134 343.659C370.306 342.525 369.514 341.508 368.758 340.608V354H365.41V335.289H368.191C368.911 336.045 369.685 336.945 370.513 337.989C371.341 339.015 372.169 340.086 372.997 341.202C373.843 342.318 374.653 343.443 375.427 344.577C376.219 345.693 376.921 346.737 377.533 347.709V335.289H380.908V354H378.019ZM388.447 344.631C388.447 345.657 388.573 346.593 388.825 347.439C389.077 348.267 389.437 348.978 389.905 349.572C390.391 350.148 390.976 350.598 391.66 350.922C392.344 351.246 393.118 351.408 393.982 351.408C394.828 351.408 395.593 351.246 396.277 350.922C396.961 350.598 397.537 350.148 398.005 349.572C398.491 348.978 398.86 348.267 399.112 347.439C399.364 346.593 399.49 345.657 399.49 344.631C399.49 343.605 399.364 342.678 399.112 341.85C398.86 341.004 398.491 340.293 398.005 339.717C397.537 339.123 396.961 338.664 396.277 338.34C395.593 338.016 394.828 337.854 393.982 337.854C393.118 337.854 392.344 338.016 391.66 338.34C390.976 338.664 390.391 339.123 389.905 339.717C389.437 340.311 389.077 341.022 388.825 341.85C388.573 342.678 388.447 343.605 388.447 344.631ZM403.054 344.631C403.054 346.233 402.811 347.646 402.325 348.87C401.857 350.094 401.209 351.12 400.381 351.948C399.571 352.758 398.617 353.37 397.519 353.784C396.421 354.198 395.251 354.405 394.009 354.405C392.767 354.405 391.588 354.198 390.472 353.784C389.374 353.37 388.411 352.758 387.583 351.948C386.773 351.12 386.125 350.094 385.639 348.87C385.153 347.646 384.91 346.233 384.91 344.631C384.91 343.029 385.153 341.625 385.639 340.419C386.125 339.195 386.782 338.169 387.61 337.341C388.456 336.513 389.428 335.892 390.526 335.478C391.624 335.064 392.785 334.857 394.009 334.857C395.233 334.857 396.394 335.064 397.492 335.478C398.59 335.892 399.544 336.513 400.354 337.341C401.182 338.169 401.839 339.195 402.325 340.419C402.811 341.625 403.054 343.029 403.054 344.631ZM417.03 351.192C417.228 351.21 417.489 351.228 417.813 351.246C418.137 351.246 418.578 351.246 419.136 351.246C421.422 351.246 423.123 350.67 424.239 349.518C425.373 348.348 425.94 346.719 425.94 344.631C425.94 342.507 425.391 340.878 424.293 339.744C423.195 338.61 421.494 338.043 419.19 338.043C418.182 338.043 417.462 338.07 417.03 338.124V351.192ZM429.504 344.631C429.504 346.251 429.252 347.664 428.748 348.87C428.244 350.058 427.524 351.057 426.588 351.867C425.67 352.659 424.554 353.253 423.24 353.649C421.944 354.027 420.504 354.216 418.92 354.216C418.164 354.216 417.309 354.18 416.355 354.108C415.401 354.054 414.492 353.928 413.628 353.73V335.559C414.492 335.361 415.41 335.235 416.382 335.181C417.354 335.127 418.218 335.1 418.974 335.1C420.54 335.1 421.971 335.289 423.267 335.667C424.563 336.027 425.67 336.603 426.588 337.395C427.524 338.169 428.244 339.159 428.748 340.365C429.252 341.553 429.504 342.975 429.504 344.631ZM445.461 354C445.209 353.262 444.948 352.533 444.678 351.813C444.408 351.093 444.147 350.355 443.895 349.599H436.011C435.759 350.355 435.498 351.102 435.228 351.84C434.976 352.56 434.724 353.28 434.472 354H430.935C431.637 352.002 432.303 350.157 432.933 348.465C433.563 346.773 434.175 345.171 434.769 343.659C435.381 342.147 435.984 340.707 436.578 339.339C437.172 337.971 437.784 336.621 438.414 335.289H441.627C442.257 336.621 442.869 337.971 443.463 339.339C444.057 340.707 444.651 342.147 445.245 343.659C445.857 345.171 446.478 346.773 447.108 348.465C447.756 350.157 448.431 352.002 449.133 354H445.461ZM439.953 338.907C439.539 339.861 439.062 341.022 438.522 342.39C438 343.758 437.451 345.243 436.875 346.845H443.031C442.455 345.243 441.897 343.749 441.357 342.363C440.817 340.977 440.349 339.825 439.953 338.907ZM463.28 335.289V338.232H457.529V354H454.1V338.232H448.349V335.289H463.28ZM477.035 354C476.783 353.262 476.522 352.533 476.252 351.813C475.982 351.093 475.721 350.355 475.469 349.599H467.585C467.333 350.355 467.072 351.102 466.802 351.84C466.55 352.56 466.298 353.28 466.046 354H462.509C463.211 352.002 463.877 350.157 464.507 348.465C465.137 346.773 465.749 345.171 466.343 343.659C466.955 342.147 467.558 340.707 468.152 339.339C468.746 337.971 469.358 336.621 469.988 335.289H473.201C473.831 336.621 474.443 337.971 475.037 339.339C475.631 340.707 476.225 342.147 476.819 343.659C477.431 345.171 478.052 346.773 478.682 348.465C479.33 350.157 480.005 352.002 480.707 354H477.035ZM471.527 338.907C471.113 339.861 470.636 341.022 470.096 342.39C469.574 343.758 469.025 345.243 468.449 346.845H474.605C474.029 345.243 473.471 343.749 472.931 342.363C472.391 340.977 471.923 339.825 471.527 338.907ZM376.57 385V366.289H388.396V369.178H379.972V373.957H387.451V376.846H379.972V385H376.57ZM394.202 375.631C394.202 376.657 394.328 377.593 394.58 378.439C394.832 379.267 395.192 379.978 395.66 380.572C396.146 381.148 396.731 381.598 397.415 381.922C398.099 382.246 398.873 382.408 399.737 382.408C400.583 382.408 401.348 382.246 402.032 381.922C402.716 381.598 403.292 381.148 403.76 380.572C404.246 379.978 404.615 379.267 404.867 378.439C405.119 377.593 405.245 376.657 405.245 375.631C405.245 374.605 405.119 373.678 404.867 372.85C404.615 372.004 404.246 371.293 403.76 370.717C403.292 370.123 402.716 369.664 402.032 369.34C401.348 369.016 400.583 368.854 399.737 368.854C398.873 368.854 398.099 369.016 397.415 369.34C396.731 369.664 396.146 370.123 395.66 370.717C395.192 371.311 394.832 372.022 394.58 372.85C394.328 373.678 394.202 374.605 394.202 375.631ZM408.809 375.631C408.809 377.233 408.566 378.646 408.08 379.87C407.612 381.094 406.964 382.12 406.136 382.948C405.326 383.758 404.372 384.37 403.274 384.784C402.176 385.198 401.006 385.405 399.764 385.405C398.522 385.405 397.343 385.198 396.227 384.784C395.129 384.37 394.166 383.758 393.338 382.948C392.528 382.12 391.88 381.094 391.394 379.87C390.908 378.646 390.665 377.233 390.665 375.631C390.665 374.029 390.908 372.625 391.394 371.419C391.88 370.195 392.537 369.169 393.365 368.341C394.211 367.513 395.183 366.892 396.281 366.478C397.379 366.064 398.54 365.857 399.764 365.857C400.988 365.857 402.149 366.064 403.247 366.478C404.345 366.892 405.299 367.513 406.109 368.341C406.937 369.169 407.594 370.195 408.08 371.419C408.566 372.625 408.809 374.029 408.809 375.631ZM420.02 385.405C418.742 385.405 417.644 385.225 416.726 384.865C415.808 384.487 415.043 383.965 414.431 383.299C413.837 382.633 413.396 381.85 413.108 380.95C412.82 380.05 412.676 379.06 412.676 377.98V366.289H416.105V377.656C416.105 378.502 416.195 379.231 416.375 379.843C416.573 380.437 416.843 380.923 417.185 381.301C417.545 381.679 417.959 381.958 418.427 382.138C418.913 382.318 419.453 382.408 420.047 382.408C420.641 382.408 421.181 382.318 421.667 382.138C422.153 381.958 422.567 381.679 422.909 381.301C423.269 380.923 423.539 380.437 423.719 379.843C423.917 379.231 424.016 378.502 424.016 377.656V366.289H427.445V377.98C427.445 379.06 427.292 380.05 426.986 380.95C426.698 381.85 426.248 382.633 425.636 383.299C425.042 383.965 424.277 384.487 423.341 384.865C422.405 385.225 421.298 385.405 420.02 385.405ZM444.674 385C444.062 383.974 443.378 382.876 442.622 381.706C441.866 380.518 441.083 379.33 440.273 378.142C439.463 376.936 438.635 375.775 437.789 374.659C436.961 373.525 436.169 372.508 435.413 371.608V385H432.065V366.289H434.846C435.566 367.045 436.34 367.945 437.168 368.989C437.996 370.015 438.824 371.086 439.652 372.202C440.498 373.318 441.308 374.443 442.082 375.577C442.874 376.693 443.576 377.737 444.188 378.709V366.289H447.563V385H444.674ZM455.724 382.192C455.922 382.21 456.183 382.228 456.507 382.246C456.831 382.246 457.272 382.246 457.83 382.246C460.116 382.246 461.817 381.67 462.933 380.518C464.067 379.348 464.634 377.719 464.634 375.631C464.634 373.507 464.085 371.878 462.987 370.744C461.889 369.61 460.188 369.043 457.884 369.043C456.876 369.043 456.156 369.07 455.724 369.124V382.192ZM468.198 375.631C468.198 377.251 467.946 378.664 467.442 379.87C466.938 381.058 466.218 382.057 465.282 382.867C464.364 383.659 463.248 384.253 461.934 384.649C460.638 385.027 459.198 385.216 457.614 385.216C456.858 385.216 456.003 385.18 455.049 385.108C454.095 385.054 453.186 384.928 452.322 384.73V366.559C453.186 366.361 454.104 366.235 455.076 366.181C456.048 366.127 456.912 366.1 457.668 366.1C459.234 366.1 460.665 366.289 461.961 366.667C463.257 367.027 464.364 367.603 465.282 368.395C466.218 369.169 466.938 370.159 467.442 371.365C467.946 372.553 468.198 373.975 468.198 375.631Z" fill="white"/>
</g>
<defs>
<clipPath id="clip0_132_502">
<rect width="593" height="545" fill="white"/>
</clipPath>
</defs>
</svg>
