<svg width="250" height="98" viewBox="0 0 250 98" fill="none" xmlns="http://www.w3.org/2000/svg">
<path d="M1.68 66.72C2.28 64.4 3.5 62.64 5.34 61.44C5.14 60.64 5.04 59.54 5.04 58.14C5.04 56.7 5.46 52.88 6.3 46.68C7.78 36.4 8.52 28.44 8.52 22.8C8.52 21.6 8.44 19.96 8.28 17.88C11.32 18.04 13.54 18.52 14.94 19.32C15.54 19.64 16 20.14 16.32 20.82C16.64 21.46 16.82 22.06 16.86 22.62C16.94 23.18 16.98 24.2 16.98 25.68C16.98 27.16 16.36 32.02 15.12 40.26C13.92 48.46 13.22 54.92 13.02 59.64C22.5 59.64 29.52 58.88 34.08 57.36C33.72 60.32 32.82 62.62 31.38 64.26C29.94 65.9 28.14 66.72 25.98 66.72C25.34 66.72 23.54 66.54 20.58 66.18C17.66 65.86 14.56 65.7 11.28 65.7C8 65.7 4.8 66.04 1.68 66.72ZM58.6725 35.94C56.0725 35.94 53.7525 37.7 51.7125 41.22C49.6725 44.7 48.6525 48.18 48.6525 51.66C48.6525 58.94 50.5325 62.58 54.2925 62.58C56.9725 62.58 59.1525 60.84 60.8325 57.36C62.5125 53.84 63.3525 49.9 63.3525 45.54C63.3525 39.14 61.7925 35.94 58.6725 35.94ZM53.5725 30.54C54.0125 30.54 54.4125 30.68 54.7725 30.96C55.1725 31.2 55.3725 31.46 55.3725 31.74C51.3325 34.54 48.9125 38.44 48.1125 43.44C48.9525 41.2 49.9725 39.26 51.1725 37.62C52.4125 35.98 53.6925 34.74 55.0125 33.9C57.5325 32.34 59.9925 31.56 62.3925 31.56C64.7925 31.56 66.8325 32.74 68.5125 35.1C70.1925 37.46 71.0325 40.62 71.0325 44.58C71.0325 49.02 70.1325 53.1 68.3325 56.82C66.3325 61.02 63.4925 63.92 59.8125 65.52C57.7325 66.44 55.4525 66.9 52.9725 66.9C49.4925 66.9 46.4525 65.56 43.8525 62.88C41.2925 60.16 40.0125 56.28 40.0125 51.24C40.0125 46.16 41.2525 41.7 43.7325 37.86C46.2125 33.98 49.4925 31.54 53.5725 30.54ZM99.9038 35.94C97.3038 35.94 94.9838 37.7 92.9438 41.22C90.9038 44.7 89.8838 48.18 89.8838 51.66C89.8838 58.94 91.7638 62.58 95.5238 62.58C98.2038 62.58 100.384 60.84 102.064 57.36C103.744 53.84 104.584 49.9 104.584 45.54C104.584 39.14 103.024 35.94 99.9038 35.94ZM94.8038 30.54C95.2438 30.54 95.6438 30.68 96.0038 30.96C96.4038 31.2 96.6038 31.46 96.6038 31.74C92.5638 34.54 90.1438 38.44 89.3438 43.44C90.1838 41.2 91.2038 39.26 92.4038 37.62C93.6438 35.98 94.9238 34.74 96.2438 33.9C98.7638 32.34 101.224 31.56 103.624 31.56C106.024 31.56 108.064 32.74 109.744 35.1C111.424 37.46 112.264 40.62 112.264 44.58C112.264 49.02 111.364 53.1 109.564 56.82C107.564 61.02 104.724 63.92 101.044 65.52C98.9638 66.44 96.6838 66.9 94.2038 66.9C90.7238 66.9 87.6838 65.56 85.0838 62.88C82.5238 60.16 81.2438 56.28 81.2438 51.24C81.2438 46.16 82.4838 41.7 84.9638 37.86C87.4438 33.98 90.7238 31.54 94.8038 30.54ZM136.035 37.8C135.835 39.24 135.415 41.74 134.775 45.3C133.415 52.86 132.735 58.46 132.735 62.1C132.735 65.74 133.015 68.18 133.575 69.42C130.495 68.62 128.375 67.4 127.215 65.76C126.055 64.08 125.475 61.72 125.475 58.68C125.475 56 125.895 52.34 126.735 47.7C127.575 43.02 128.115 39.86 128.355 38.22C126.275 38.58 124.055 39.28 121.695 40.32C121.615 39.44 121.575 38.78 121.575 38.34C121.575 36.22 122.215 34.78 123.495 34.02C124.775 33.22 126.615 32.8 129.015 32.76C129.295 29.76 129.435 27.6 129.435 26.28C129.435 24.96 129.415 23.86 129.375 22.98C129.375 22.1 129.375 21.44 129.375 21C132.015 21.28 133.935 22.08 135.135 23.4C136.335 24.68 136.935 26.52 136.935 28.92C136.935 29.88 136.835 31.22 136.635 32.94C139.995 32.86 142.455 32.2 144.015 30.96C144.095 31.76 144.135 32.36 144.135 32.76C144.135 34.68 143.795 36.02 143.115 36.78C142.435 37.5 141.295 37.86 139.695 37.86C138.095 37.86 136.875 37.84 136.035 37.8ZM171.36 45.96L165.6 45.9C163.96 45.9 162.7 45.92 161.82 45.96C161.18 51.56 160.86 56.1 160.86 59.58C160.86 63.06 160.98 65.5 161.22 66.9C159.94 66.98 159.1 67.02 158.7 67.02C156.42 67.02 154.78 66.62 153.78 65.82C152.78 65.02 152.28 63.62 152.28 61.62C152.28 59.58 152.84 54.72 153.96 47.04C152.68 47.44 151.74 47.78 151.14 48.06C151.06 47.18 151.02 46.52 151.02 46.08C151.02 43.32 152.28 41.6 154.8 40.92C155.56 35.44 156.02 30.7 156.18 26.7C154.14 26.7 152.84 26.42 152.28 25.86C151.76 25.3 151.5 24.06 151.5 22.14C151.66 20.34 151.82 19.16 151.98 18.6C156.5 19.2 161.46 19.5 166.86 19.5C172.26 19.5 177.48 19.02 182.52 18.06C181.96 22.26 179.4 24.78 174.84 25.62C172.36 26.1 168.82 26.42 164.22 26.58C164.18 27.1 163.6 31.76 162.48 40.56C164.8 40.64 166.38 40.68 167.22 40.68C171.02 40.68 173.72 40.02 175.32 38.7C175.4 39.5 175.44 40.1 175.44 40.5C175.44 44.14 174.08 45.96 171.36 45.96ZM193.351 54.66C193.351 56.54 193.691 58.08 194.371 59.28C195.091 60.44 196.091 61.02 197.371 61.02C199.251 61.02 201.031 59.92 202.711 57.72C204.431 55.52 205.791 52.7 206.791 49.26C207.831 45.82 208.351 42.56 208.351 39.48C208.351 36.36 208.231 33.84 207.991 31.92C209.191 31.84 210.031 31.8 210.511 31.8C212.551 31.8 214.091 32.18 215.131 32.94C216.171 33.7 216.691 35.06 216.691 37.02C216.691 37.78 216.211 40.88 215.251 46.32C214.291 51.72 213.811 56.06 213.811 59.34C213.811 62.58 214.431 65.46 215.671 67.98C212.671 67.46 210.471 66.36 209.071 64.68C207.671 62.96 206.971 60.5 206.971 57.3C206.971 56.74 207.051 55.66 207.211 54.06C206.131 57.86 204.211 60.92 201.451 63.24C198.691 65.56 195.971 66.72 193.291 66.72C190.651 66.72 188.511 65.74 186.871 63.78C185.271 61.78 184.471 58.96 184.471 55.32C184.471 51.68 185.111 48.16 186.391 44.76C187.711 41.32 189.671 38.42 192.271 36.06C194.871 33.66 197.771 32.46 200.971 32.46C202.811 32.46 204.691 32.9 206.611 33.78C202.571 35.22 199.351 38.06 196.951 42.3C194.551 46.5 193.351 50.62 193.351 54.66ZM241.037 37.8C240.837 39.24 240.417 41.74 239.777 45.3C238.417 52.86 237.737 58.46 237.737 62.1C237.737 65.74 238.017 68.18 238.577 69.42C235.497 68.62 233.377 67.4 232.217 65.76C231.057 64.08 230.477 61.72 230.477 58.68C230.477 56 230.897 52.34 231.737 47.7C232.577 43.02 233.117 39.86 233.357 38.22C231.277 38.58 229.057 39.28 226.697 40.32C226.617 39.44 226.577 38.78 226.577 38.34C226.577 36.22 227.217 34.78 228.497 34.02C229.777 33.22 231.617 32.8 234.017 32.76C234.297 29.76 234.437 27.6 234.437 26.28C234.437 24.96 234.417 23.86 234.377 22.98C234.377 22.1 234.377 21.44 234.377 21C237.017 21.28 238.937 22.08 240.137 23.4C241.337 24.68 241.937 26.52 241.937 28.92C241.937 29.88 241.837 31.22 241.637 32.94C244.997 32.86 247.457 32.2 249.017 30.96C249.097 31.76 249.137 32.36 249.137 32.76C249.137 34.68 248.797 36.02 248.117 36.78C247.437 37.5 246.297 37.86 244.697 37.86C243.097 37.86 241.877 37.84 241.037 37.8Z" fill="#27306B"/>
<path d="M5.724 93.18C4.944 93.18 4.23 93.084 3.582 92.892C2.946 92.7 2.376 92.418 1.872 92.046C1.38 91.674 0.936 91.224 0.54 90.696L2.232 88.77C2.82 89.586 3.402 90.144 3.978 90.444C4.566 90.732 5.202 90.876 5.886 90.876C6.258 90.876 6.588 90.828 6.876 90.732C7.176 90.624 7.41 90.474 7.578 90.282C7.746 90.09 7.83 89.862 7.83 89.598C7.83 89.406 7.788 89.232 7.704 89.076C7.62 88.908 7.5 88.764 7.344 88.644C7.188 88.512 7.002 88.398 6.786 88.302C6.57 88.194 6.33 88.104 6.066 88.032C5.802 87.948 5.514 87.882 5.202 87.834C4.53 87.678 3.942 87.492 3.438 87.276C2.934 87.048 2.514 86.772 2.178 86.448C1.842 86.112 1.59 85.734 1.422 85.314C1.266 84.894 1.188 84.42 1.188 83.892C1.188 83.352 1.308 82.854 1.548 82.398C1.788 81.93 2.118 81.528 2.538 81.192C2.97 80.856 3.462 80.598 4.014 80.418C4.578 80.238 5.172 80.148 5.796 80.148C6.564 80.148 7.236 80.238 7.812 80.418C8.388 80.586 8.886 80.832 9.306 81.156C9.738 81.48 10.098 81.876 10.386 82.344L8.676 84C8.424 83.664 8.148 83.382 7.848 83.154C7.56 82.926 7.242 82.758 6.894 82.65C6.558 82.53 6.21 82.47 5.85 82.47C5.454 82.47 5.112 82.524 4.824 82.632C4.536 82.728 4.308 82.872 4.14 83.064C3.984 83.256 3.906 83.49 3.906 83.766C3.906 83.982 3.96 84.174 4.068 84.342C4.176 84.51 4.332 84.66 4.536 84.792C4.74 84.912 4.986 85.02 5.274 85.116C5.562 85.212 5.88 85.296 6.228 85.368C6.888 85.5 7.482 85.674 8.01 85.89C8.538 86.106 8.988 86.37 9.36 86.682C9.744 86.982 10.038 87.342 10.242 87.762C10.446 88.17 10.548 88.632 10.548 89.148C10.548 90 10.344 90.726 9.936 91.326C9.528 91.926 8.964 92.388 8.244 92.712C7.524 93.024 6.684 93.18 5.724 93.18ZM16.7735 93.18C15.8615 93.18 15.0455 92.964 14.3255 92.532C13.6055 92.1 13.0355 91.512 12.6155 90.768C12.2075 90.024 12.0035 89.178 12.0035 88.23C12.0035 87.294 12.2075 86.454 12.6155 85.71C13.0355 84.954 13.6055 84.36 14.3255 83.928C15.0455 83.496 15.8615 83.28 16.7735 83.28C17.6255 83.28 18.4055 83.436 19.1135 83.748C19.8215 84.06 20.3735 84.492 20.7695 85.044L19.3655 86.736C19.1975 86.508 18.9875 86.304 18.7355 86.124C18.4835 85.932 18.2075 85.782 17.9075 85.674C17.6195 85.566 17.3195 85.512 17.0075 85.512C16.5155 85.512 16.0775 85.632 15.6935 85.872C15.3215 86.1 15.0275 86.418 14.8115 86.826C14.5955 87.234 14.4875 87.702 14.4875 88.23C14.4875 88.746 14.5955 89.208 14.8115 89.616C15.0395 90.012 15.3455 90.336 15.7295 90.588C16.1135 90.828 16.5455 90.948 17.0255 90.948C17.3375 90.948 17.6315 90.906 17.9075 90.822C18.1835 90.726 18.4415 90.588 18.6815 90.408C18.9335 90.228 19.1615 90.012 19.3655 89.76L20.7515 91.452C20.3435 91.968 19.7795 92.388 19.0595 92.712C18.3395 93.024 17.5775 93.18 16.7735 93.18ZM25.9533 93.18C25.1613 93.18 24.4473 92.964 23.8113 92.532C23.1753 92.1 22.6713 91.512 22.2993 90.768C21.9273 90.024 21.7413 89.172 21.7413 88.212C21.7413 87.252 21.9273 86.406 22.2993 85.674C22.6833 84.93 23.1993 84.348 23.8473 83.928C24.4953 83.496 25.2333 83.28 26.0613 83.28C26.5293 83.28 26.9553 83.352 27.3393 83.496C27.7353 83.628 28.0773 83.814 28.3653 84.054C28.6653 84.294 28.9173 84.57 29.1213 84.882C29.3253 85.194 29.4693 85.53 29.5533 85.89L29.0133 85.8V83.478H31.5513V93H28.9773V90.714L29.5533 90.66C29.4573 90.996 29.3013 91.314 29.0853 91.614C28.8693 91.914 28.5993 92.184 28.2753 92.424C27.9633 92.652 27.6093 92.838 27.2133 92.982C26.8173 93.114 26.3973 93.18 25.9533 93.18ZM26.6553 90.966C27.1353 90.966 27.5553 90.852 27.9153 90.624C28.2753 90.396 28.5513 90.078 28.7433 89.67C28.9473 89.25 29.0493 88.764 29.0493 88.212C29.0493 87.672 28.9473 87.198 28.7433 86.79C28.5513 86.382 28.2753 86.064 27.9153 85.836C27.5553 85.596 27.1353 85.476 26.6553 85.476C26.1873 85.476 25.7733 85.596 25.4133 85.836C25.0653 86.064 24.7893 86.382 24.5853 86.79C24.3813 87.198 24.2793 87.672 24.2793 88.212C24.2793 88.764 24.3813 89.25 24.5853 89.67C24.7893 90.078 25.0653 90.396 25.4133 90.624C25.7733 90.852 26.1873 90.966 26.6553 90.966ZM34.1139 93V83.478H36.5619L36.6339 85.422L36.1299 85.638C36.2619 85.206 36.4959 84.816 36.8319 84.468C37.1799 84.108 37.5939 83.82 38.0739 83.604C38.5539 83.388 39.0579 83.28 39.5859 83.28C40.3059 83.28 40.9059 83.424 41.3859 83.712C41.8779 84 42.2439 84.438 42.4839 85.026C42.7359 85.602 42.8619 86.316 42.8619 87.168V93H40.3059V87.366C40.3059 86.934 40.2459 86.574 40.1259 86.286C40.0059 85.998 39.8199 85.788 39.5679 85.656C39.3279 85.512 39.0279 85.452 38.6679 85.476C38.3799 85.476 38.1099 85.524 37.8579 85.62C37.6179 85.704 37.4079 85.83 37.2279 85.998C37.0599 86.166 36.9219 86.358 36.8139 86.574C36.7179 86.79 36.6699 87.024 36.6699 87.276V93H35.4099C35.1339 93 34.8879 93 34.6719 93C34.4559 93 34.2699 93 34.1139 93Z" fill="#58AA00"/>
<path d="M79.638 93V80.4H85.218C85.998 80.4 86.706 80.58 87.342 80.94C87.978 81.288 88.476 81.762 88.836 82.362C89.208 82.962 89.394 83.646 89.394 84.414C89.394 85.17 89.208 85.86 88.836 86.484C88.476 87.096 87.978 87.582 87.342 87.942C86.706 88.302 85.998 88.482 85.218 88.482H82.248V93H79.638ZM86.784 93L83.58 87.312L86.352 86.862L89.916 93.018L86.784 93ZM82.248 86.286H85.092C85.416 86.286 85.698 86.214 85.938 86.07C86.19 85.914 86.382 85.704 86.514 85.44C86.646 85.164 86.712 84.858 86.712 84.522C86.712 84.162 86.634 83.85 86.478 83.586C86.322 83.322 86.094 83.118 85.794 82.974C85.494 82.818 85.146 82.74 84.75 82.74H82.248V86.286ZM96.048 93.18C95.016 93.18 94.116 92.97 93.348 92.55C92.58 92.13 91.98 91.554 91.548 90.822C91.116 90.09 90.9 89.25 90.9 88.302C90.9 87.57 91.02 86.898 91.26 86.286C91.5 85.674 91.836 85.146 92.268 84.702C92.7 84.246 93.21 83.898 93.798 83.658C94.398 83.406 95.046 83.28 95.742 83.28C96.39 83.28 96.99 83.4 97.542 83.64C98.094 83.868 98.568 84.198 98.964 84.63C99.372 85.05 99.684 85.548 99.9 86.124C100.116 86.7 100.212 87.33 100.188 88.014L100.17 88.806H92.52L92.106 87.24H98.064L97.776 87.564V87.168C97.752 86.844 97.644 86.55 97.452 86.286C97.272 86.022 97.038 85.818 96.75 85.674C96.462 85.53 96.138 85.458 95.778 85.458C95.25 85.458 94.8 85.56 94.428 85.764C94.068 85.968 93.792 86.268 93.6 86.664C93.408 87.06 93.312 87.54 93.312 88.104C93.312 88.68 93.432 89.178 93.672 89.598C93.924 90.018 94.272 90.348 94.716 90.588C95.172 90.816 95.706 90.93 96.318 90.93C96.738 90.93 97.122 90.864 97.47 90.732C97.818 90.6 98.19 90.372 98.586 90.048L99.81 91.758C99.462 92.07 99.078 92.334 98.658 92.55C98.238 92.754 97.806 92.91 97.362 93.018C96.918 93.126 96.48 93.18 96.048 93.18ZM105.803 93.18C104.975 93.18 104.231 92.97 103.571 92.55C102.911 92.118 102.389 91.536 102.005 90.804C101.633 90.06 101.447 89.202 101.447 88.23C101.447 87.282 101.633 86.436 102.005 85.692C102.389 84.948 102.905 84.36 103.553 83.928C104.213 83.496 104.963 83.28 105.803 83.28C106.247 83.28 106.673 83.352 107.081 83.496C107.501 83.628 107.873 83.814 108.197 84.054C108.533 84.294 108.803 84.564 109.007 84.864C109.211 85.152 109.325 85.458 109.349 85.782L108.701 85.89V79.68H111.257V93H108.845L108.737 90.804L109.241 90.858C109.217 91.158 109.109 91.446 108.917 91.722C108.725 91.998 108.467 92.25 108.143 92.478C107.831 92.694 107.471 92.868 107.063 93C106.667 93.12 106.247 93.18 105.803 93.18ZM106.379 91.056C106.859 91.056 107.279 90.936 107.639 90.696C107.999 90.456 108.281 90.126 108.485 89.706C108.689 89.286 108.791 88.794 108.791 88.23C108.791 87.678 108.689 87.192 108.485 86.772C108.281 86.34 107.999 86.01 107.639 85.782C107.279 85.542 106.859 85.422 106.379 85.422C105.899 85.422 105.479 85.542 105.119 85.782C104.771 86.01 104.495 86.34 104.291 86.772C104.099 87.192 104.003 87.678 104.003 88.23C104.003 88.794 104.099 89.286 104.291 89.706C104.495 90.126 104.771 90.456 105.119 90.696C105.479 90.936 105.899 91.056 106.379 91.056ZM118.267 93.18C117.235 93.18 116.335 92.97 115.567 92.55C114.799 92.13 114.199 91.554 113.767 90.822C113.335 90.09 113.119 89.25 113.119 88.302C113.119 87.57 113.239 86.898 113.479 86.286C113.719 85.674 114.055 85.146 114.487 84.702C114.919 84.246 115.429 83.898 116.017 83.658C116.617 83.406 117.265 83.28 117.961 83.28C118.609 83.28 119.209 83.4 119.761 83.64C120.313 83.868 120.787 84.198 121.183 84.63C121.591 85.05 121.903 85.548 122.119 86.124C122.335 86.7 122.431 87.33 122.407 88.014L122.389 88.806H114.739L114.325 87.24H120.283L119.995 87.564V87.168C119.971 86.844 119.863 86.55 119.671 86.286C119.491 86.022 119.257 85.818 118.969 85.674C118.681 85.53 118.357 85.458 117.997 85.458C117.469 85.458 117.019 85.56 116.647 85.764C116.287 85.968 116.011 86.268 115.819 86.664C115.627 87.06 115.531 87.54 115.531 88.104C115.531 88.68 115.651 89.178 115.891 89.598C116.143 90.018 116.491 90.348 116.935 90.588C117.391 90.816 117.925 90.93 118.537 90.93C118.957 90.93 119.341 90.864 119.689 90.732C120.037 90.6 120.409 90.372 120.805 90.048L122.029 91.758C121.681 92.07 121.297 92.334 120.877 92.55C120.457 92.754 120.025 92.91 119.581 93.018C119.137 93.126 118.699 93.18 118.267 93.18ZM128.814 93.18C127.782 93.18 126.882 92.97 126.114 92.55C125.346 92.13 124.746 91.554 124.314 90.822C123.882 90.09 123.666 89.25 123.666 88.302C123.666 87.57 123.786 86.898 124.026 86.286C124.266 85.674 124.602 85.146 125.034 84.702C125.466 84.246 125.976 83.898 126.564 83.658C127.164 83.406 127.812 83.28 128.508 83.28C129.156 83.28 129.756 83.4 130.308 83.64C130.86 83.868 131.334 84.198 131.73 84.63C132.138 85.05 132.45 85.548 132.666 86.124C132.882 86.7 132.978 87.33 132.954 88.014L132.936 88.806H125.286L124.872 87.24H130.83L130.542 87.564V87.168C130.518 86.844 130.41 86.55 130.218 86.286C130.038 86.022 129.804 85.818 129.516 85.674C129.228 85.53 128.904 85.458 128.544 85.458C128.016 85.458 127.566 85.56 127.194 85.764C126.834 85.968 126.558 86.268 126.366 86.664C126.174 87.06 126.078 87.54 126.078 88.104C126.078 88.68 126.198 89.178 126.438 89.598C126.69 90.018 127.038 90.348 127.482 90.588C127.938 90.816 128.472 90.93 129.084 90.93C129.504 90.93 129.888 90.864 130.236 90.732C130.584 90.6 130.956 90.372 131.352 90.048L132.576 91.758C132.228 92.07 131.844 92.334 131.424 92.55C131.004 92.754 130.572 92.91 130.128 93.018C129.684 93.126 129.246 93.18 128.814 93.18ZM134.824 93V83.478H137.29L137.344 85.296L136.966 85.368C137.098 85.056 137.272 84.774 137.488 84.522C137.704 84.27 137.956 84.054 138.244 83.874C138.544 83.694 138.856 83.556 139.18 83.46C139.504 83.352 139.828 83.298 140.152 83.298C140.644 83.298 141.088 83.376 141.484 83.532C141.88 83.688 142.216 83.934 142.492 84.27C142.768 84.594 142.984 85.026 143.14 85.566L142.744 85.53L142.87 85.242C143.026 84.954 143.224 84.696 143.464 84.468C143.704 84.228 143.974 84.024 144.274 83.856C144.574 83.676 144.886 83.538 145.21 83.442C145.534 83.346 145.852 83.298 146.164 83.298C146.908 83.298 147.526 83.448 148.018 83.748C148.51 84.036 148.876 84.474 149.116 85.062C149.368 85.65 149.494 86.37 149.494 87.222V93H146.938V87.402C146.938 86.97 146.878 86.616 146.758 86.34C146.638 86.064 146.464 85.86 146.236 85.728C146.008 85.584 145.714 85.512 145.354 85.512C145.078 85.512 144.82 85.56 144.58 85.656C144.352 85.74 144.148 85.866 143.968 86.034C143.8 86.19 143.668 86.376 143.572 86.592C143.476 86.808 143.428 87.048 143.428 87.312V93H140.872V87.384C140.872 86.988 140.806 86.652 140.674 86.376C140.554 86.088 140.38 85.872 140.152 85.728C139.924 85.584 139.642 85.512 139.306 85.512C139.03 85.512 138.772 85.56 138.532 85.656C138.304 85.74 138.106 85.866 137.938 86.034C137.77 86.19 137.632 86.376 137.524 86.592C137.428 86.808 137.38 87.042 137.38 87.294V93H134.824Z" fill="#EE9C15"/>
<path d="M185.638 93V80.4H191.218C191.998 80.4 192.706 80.58 193.342 80.94C193.978 81.288 194.476 81.762 194.836 82.362C195.208 82.962 195.394 83.646 195.394 84.414C195.394 85.17 195.208 85.86 194.836 86.484C194.476 87.096 193.978 87.582 193.342 87.942C192.706 88.302 191.998 88.482 191.218 88.482H188.248V93H185.638ZM192.784 93L189.58 87.312L192.352 86.862L195.916 93.018L192.784 93ZM188.248 86.286H191.092C191.416 86.286 191.698 86.214 191.938 86.07C192.19 85.914 192.382 85.704 192.514 85.44C192.646 85.164 192.712 84.858 192.712 84.522C192.712 84.162 192.634 83.85 192.478 83.586C192.322 83.322 192.094 83.118 191.794 82.974C191.494 82.818 191.146 82.74 190.75 82.74H188.248V86.286ZM202.048 93.18C201.016 93.18 200.116 92.97 199.348 92.55C198.58 92.13 197.98 91.554 197.548 90.822C197.116 90.09 196.9 89.25 196.9 88.302C196.9 87.57 197.02 86.898 197.26 86.286C197.5 85.674 197.836 85.146 198.268 84.702C198.7 84.246 199.21 83.898 199.798 83.658C200.398 83.406 201.046 83.28 201.742 83.28C202.39 83.28 202.99 83.4 203.542 83.64C204.094 83.868 204.568 84.198 204.964 84.63C205.372 85.05 205.684 85.548 205.9 86.124C206.116 86.7 206.212 87.33 206.188 88.014L206.17 88.806H198.52L198.106 87.24H204.064L203.776 87.564V87.168C203.752 86.844 203.644 86.55 203.452 86.286C203.272 86.022 203.038 85.818 202.75 85.674C202.462 85.53 202.138 85.458 201.778 85.458C201.25 85.458 200.8 85.56 200.428 85.764C200.068 85.968 199.792 86.268 199.6 86.664C199.408 87.06 199.312 87.54 199.312 88.104C199.312 88.68 199.432 89.178 199.672 89.598C199.924 90.018 200.272 90.348 200.716 90.588C201.172 90.816 201.706 90.93 202.318 90.93C202.738 90.93 203.122 90.864 203.47 90.732C203.818 90.6 204.19 90.372 204.586 90.048L205.81 91.758C205.462 92.07 205.078 92.334 204.658 92.55C204.238 92.754 203.806 92.91 203.362 93.018C202.918 93.126 202.48 93.18 202.048 93.18ZM208.077 96.96V83.478H210.543L210.615 85.62L210.147 85.458C210.231 85.074 210.435 84.72 210.759 84.396C211.095 84.072 211.509 83.808 212.001 83.604C212.493 83.4 213.009 83.298 213.549 83.298C214.377 83.298 215.109 83.514 215.745 83.946C216.393 84.366 216.903 84.948 217.275 85.692C217.659 86.424 217.851 87.27 217.851 88.23C217.851 89.178 217.665 90.024 217.293 90.768C216.921 91.512 216.411 92.1 215.763 92.532C215.115 92.952 214.377 93.162 213.549 93.162C212.997 93.162 212.469 93.06 211.965 92.856C211.473 92.64 211.053 92.358 210.705 92.01C210.357 91.662 210.141 91.29 210.057 90.894L210.651 90.642V96.96H208.077ZM212.973 90.966C213.441 90.966 213.855 90.852 214.215 90.624C214.575 90.396 214.857 90.078 215.061 89.67C215.265 89.25 215.367 88.77 215.367 88.23C215.367 87.69 215.265 87.216 215.061 86.808C214.857 86.4 214.575 86.082 214.215 85.854C213.867 85.626 213.453 85.512 212.973 85.512C212.493 85.512 212.073 85.626 211.713 85.854C211.353 86.07 211.071 86.388 210.867 86.808C210.663 87.216 210.561 87.69 210.561 88.23C210.561 88.77 210.663 89.25 210.867 89.67C211.071 90.078 211.353 90.396 211.713 90.624C212.073 90.852 212.493 90.966 212.973 90.966ZM224.302 93.18C223.27 93.18 222.37 92.97 221.602 92.55C220.834 92.13 220.234 91.554 219.802 90.822C219.37 90.09 219.154 89.25 219.154 88.302C219.154 87.57 219.274 86.898 219.514 86.286C219.754 85.674 220.09 85.146 220.522 84.702C220.954 84.246 221.464 83.898 222.052 83.658C222.652 83.406 223.3 83.28 223.996 83.28C224.644 83.28 225.244 83.4 225.796 83.64C226.348 83.868 226.822 84.198 227.218 84.63C227.626 85.05 227.938 85.548 228.154 86.124C228.37 86.7 228.466 87.33 228.442 88.014L228.424 88.806H220.774L220.36 87.24H226.318L226.03 87.564V87.168C226.006 86.844 225.898 86.55 225.706 86.286C225.526 86.022 225.292 85.818 225.004 85.674C224.716 85.53 224.392 85.458 224.032 85.458C223.504 85.458 223.054 85.56 222.682 85.764C222.322 85.968 222.046 86.268 221.854 86.664C221.662 87.06 221.566 87.54 221.566 88.104C221.566 88.68 221.686 89.178 221.926 89.598C222.178 90.018 222.526 90.348 222.97 90.588C223.426 90.816 223.96 90.93 224.572 90.93C224.992 90.93 225.376 90.864 225.724 90.732C226.072 90.6 226.444 90.372 226.84 90.048L228.064 91.758C227.716 92.07 227.332 92.334 226.912 92.55C226.492 92.754 226.06 92.91 225.616 93.018C225.172 93.126 224.734 93.18 224.302 93.18ZM233.895 93.18C233.103 93.18 232.389 92.964 231.753 92.532C231.117 92.1 230.613 91.512 230.241 90.768C229.869 90.024 229.683 89.172 229.683 88.212C229.683 87.252 229.869 86.406 230.241 85.674C230.625 84.93 231.141 84.348 231.789 83.928C232.437 83.496 233.175 83.28 234.003 83.28C234.471 83.28 234.897 83.352 235.281 83.496C235.677 83.628 236.019 83.814 236.307 84.054C236.607 84.294 236.859 84.57 237.063 84.882C237.267 85.194 237.411 85.53 237.495 85.89L236.955 85.8V83.478H239.493V93H236.919V90.714L237.495 90.66C237.399 90.996 237.243 91.314 237.027 91.614C236.811 91.914 236.541 92.184 236.217 92.424C235.905 92.652 235.551 92.838 235.155 92.982C234.759 93.114 234.339 93.18 233.895 93.18ZM234.597 90.966C235.077 90.966 235.497 90.852 235.857 90.624C236.217 90.396 236.493 90.078 236.685 89.67C236.889 89.25 236.991 88.764 236.991 88.212C236.991 87.672 236.889 87.198 236.685 86.79C236.493 86.382 236.217 86.064 235.857 85.836C235.497 85.596 235.077 85.476 234.597 85.476C234.129 85.476 233.715 85.596 233.355 85.836C233.007 86.064 232.731 86.382 232.527 86.79C232.323 87.198 232.221 87.672 232.221 88.212C232.221 88.764 232.323 89.25 232.527 89.67C232.731 90.078 233.007 90.396 233.355 90.624C233.715 90.852 234.129 90.966 234.597 90.966ZM242.973 93V81.066H245.529V93H242.973ZM241.191 85.764V83.478H247.473V85.764H241.191Z" fill="#D23D50"/>
<circle cx="61.5" cy="87.5" r="3.5" fill="#EE9C15"/>
<circle cx="167.5" cy="87.5" r="3.5" fill="#D23D50"/>
</svg>
